<svg width="12" height="16" viewBox="0 0 12 16" fill="none" xmlns="http://www.w3.org/2000/svg">
<path d="M5.99999 0.5C3.08332 0.5 0.166656 5.775 0.166656 9.66667C0.166656 12.8917 2.77499 15.5 5.99999 15.5C9.22499 15.5 11.8333 12.8917 11.8333 9.66667C11.8333 5.775 8.91666 0.5 5.99999 0.5ZM5.99999 13.8333C3.69999 13.8333 1.83332 11.9667 1.83332 9.66667C1.83332 6.25833 4.39166 2.16667 5.99999 2.16667C7.60832 2.16667 10.1667 6.25833 10.1667 9.66667C10.1667 11.9667 8.29999 13.8333 5.99999 13.8333Z" fill="white"/>
<path d="M6.83332 11.3333C6.34999 11.3333 4.33332 11.2667 4.33332 8.83333C4.33332 8.375 3.95832 8 3.49999 8C3.04166 8 2.66666 8.375 2.66666 8.83333C2.66666 11.3333 4.32499 13 6.83332 13C7.29166 13 7.66666 12.625 7.66666 12.1667C7.66666 11.7083 7.29166 11.3333 6.83332 11.3333Z" fill="white"/>
</svg>
