<svg width="20" height="20" viewBox="0 0 20 20" fill="none" xmlns="http://www.w3.org/2000/svg">
<g clip-path="url(#clip0_2_1051)">
<path d="M3.74999 9.99999C4.90058 9.99999 5.83332 9.06725 5.83332 7.91666C5.83332 6.76607 4.90058 5.83333 3.74999 5.83333C2.5994 5.83333 1.66666 6.76607 1.66666 7.91666C1.66666 9.06725 2.5994 9.99999 3.74999 9.99999Z" fill="white"/>
<path d="M7.49999 6.66667C8.65058 6.66667 9.58332 5.73393 9.58332 4.58333C9.58332 3.43274 8.65058 2.5 7.49999 2.5C6.3494 2.5 5.41666 3.43274 5.41666 4.58333C5.41666 5.73393 6.3494 6.66667 7.49999 6.66667Z" fill="white"/>
<path d="M12.5 6.66667C13.6506 6.66667 14.5833 5.73393 14.5833 4.58333C14.5833 3.43274 13.6506 2.5 12.5 2.5C11.3494 2.5 10.4167 3.43274 10.4167 4.58333C10.4167 5.73393 11.3494 6.66667 12.5 6.66667Z" fill="white"/>
<path d="M16.25 9.99999C17.4006 9.99999 18.3333 9.06725 18.3333 7.91666C18.3333 6.76607 17.4006 5.83333 16.25 5.83333C15.0994 5.83333 14.1667 6.76607 14.1667 7.91666C14.1667 9.06725 15.0994 9.99999 16.25 9.99999Z" fill="white"/>
<path d="M14.45 12.3833C13.725 11.5333 13.1167 10.8083 12.3833 9.95833C12 9.50833 11.5083 9.05833 10.925 8.85833C10.8333 8.825 10.7417 8.8 10.65 8.78333C10.4417 8.75 10.2167 8.75 9.99999 8.75C9.78332 8.75 9.55832 8.75 9.34165 8.79167C9.24999 8.80833 9.15832 8.83333 9.06665 8.86667C8.48332 9.06667 7.99999 9.51667 7.60832 9.96667C6.88332 10.8167 6.27499 11.5417 5.54165 12.3917C4.44999 13.4833 3.10832 14.6917 3.35832 16.3833C3.59999 17.2333 4.20832 18.075 5.29999 18.3167C5.90832 18.4417 7.84999 17.95 9.91665 17.95H10.0667C12.1333 17.95 14.075 18.4333 14.6833 18.3167C15.775 18.075 16.3833 17.225 16.625 16.3833C16.8833 14.6833 15.5417 13.475 14.45 12.3833Z" fill="white"/>
</g>
<defs>
<clipPath id="clip0_2_1051">
<rect width="20" height="20" fill="white"/>
</clipPath>
</defs>
</svg>
